<svg xmlns="http://www.w3.org/2000/svg" xmlns:xlink="http://www.w3.org/1999/xlink" version="1.1" id="Capa_1" x="0px" y="0px" width="24px" height="24px" viewBox="0 0 516.375 516.375" style="enable-background:new 0 0 516.375 516.375;" xml:space="preserve">
<g>
	<path d="M344.25,133.875h95.625L325.125,0v114.75C325.125,126.225,334.688,133.875,344.25,133.875z" fill="#aaaaaa"/>
	<circle cx="219.938" cy="296.438" r="66.938" fill="#aaaaaa"/>
	<path d="M306,114.75V0H114.75C93.712,0,76.5,17.212,76.5,38.25v439.875c0,21.037,17.212,38.25,38.25,38.25h286.875    c21.037,0,38.25-17.213,38.25-38.25V153H344.25C323.213,153,306,135.788,306,114.75z M376.763,466.65L273.487,363.375    c-15.3,11.475-32.512,19.125-53.55,19.125c-47.812,0-86.062-38.25-86.062-86.062s38.25-86.062,86.062-86.062    S306,248.625,306,296.438c0,21.037-7.65,38.25-19.125,53.55L388.237,451.35L376.763,466.65z" fill="#aaaaaa"/>
</svg>
